<?xml version="1.0" encoding="utf-8"?>
<!-- Generator: Adobe Illustrator 16.0.0, SVG Export Plug-In . SVG Version: 6.00 Build 0)  -->
<!DOCTYPE svg PUBLIC "-//W3C//DTD SVG 1.1//EN" "http://www.w3.org/Graphics/SVG/1.1/DTD/svg11.dtd">
<svg version="1.1" xmlns="http://www.w3.org/2000/svg" xmlns:xlink="http://www.w3.org/1999/xlink" x="0px" y="0px" width="432px"
	 height="432px" viewBox="0 0 432 432" enable-background="new 0 0 432 432" xml:space="preserve">
<g id="Background">
</g>
<g id="Guides">
</g>
<g id="Foreground">
	<circle fill="#B72B42" cx="229" cy="218" r="173"/>
	<path fill="#FFFFFF" d="M401.9,212.6c0-0.1,0-0.2,0-0.4c-117.2,3.3-117.3,1.2-0.7-10.9c0-0.1,0-0.2,0-0.4
		c-116.7,11-117,8.8-1.4-10.8c0-0.1,0-0.2-0.1-0.4c-115.8,18.6-116.2,16.5-2.1-10.7c0-0.1-0.1-0.2-0.1-0.4
		c-114.4,26.1-114.9,24.1-2.8-10.5c0-0.1-0.1-0.2-0.1-0.4c-112.4,33.5-113.1,31.5-3.5-10.3c0-0.1-0.1-0.2-0.1-0.3
		c-110,40.8-110.8,38.9-4.1-10.1c-0.1-0.1-0.1-0.2-0.2-0.3c-107.2,48-108.1,46.1-4.8-9.8c-0.1-0.1-0.1-0.2-0.2-0.3
		c-103.8,54.9-104.9,53-5.4-9.4c-0.1-0.1-0.1-0.2-0.2-0.3c-100,61.6-101.2,59.8-6-9.1c-0.1-0.1-0.1-0.2-0.2-0.3
		c-95.8,68-97.1,66.3-6.6-8.7c-0.1-0.1-0.2-0.2-0.2-0.3c-91.2,74.1-92.6,72.5-7.2-8.2c-0.1-0.1-0.2-0.2-0.3-0.3
		c-86.2,80-87.7,78.5-7.7-7.7c-0.1-0.1-0.2-0.2-0.3-0.3c-80.8,85.5-82.4,84.1-8.2-7.2c-0.1-0.1-0.2-0.2-0.3-0.2
		c-75.1,90.7-76.8,89.4-8.6-6.7c-0.1-0.1-0.2-0.1-0.3-0.2c-69.1,95.4-70.8,94.2-9-6.1c-0.1-0.1-0.2-0.1-0.3-0.2
		c-62.7,99.8-64.5,98.7-9.4-5.5c-0.1-0.1-0.2-0.1-0.3-0.2c-56.1,103.8-58,102.8-9.8-4.9c-0.1-0.1-0.2-0.1-0.3-0.2
		C251.9,168,249.9,167.2,291,56.5c-0.1,0-0.2-0.1-0.3-0.1c-42.1,110.4-44.1,109.7-10.3-3.6c-0.1,0-0.2-0.1-0.4-0.1
		c-34.8,113-36.9,112.4-10.6-2.9c-0.1,0-0.2-0.1-0.4-0.1c-27.4,115.1-29.5,114.7-10.7-2.2c-0.1,0-0.2,0-0.4-0.1
		c-19.8,116.7-21.9,116.4-10.8-1.5c-0.1,0-0.2,0-0.4,0c-12.1,117.8-14.3,117.7-10.9-0.8c-0.1,0-0.2,0-0.4,0
		c-4.4,118.4-6.5,118.4-11-0.1c-0.1,0-0.2,0-0.4,0c3.3,118.6,1.2,118.7-10.9,0.7c-0.1,0-0.2,0-0.4,0c11.1,118.2,9,118.4-10.9,1.4
		c-0.1,0-0.2,0-0.4,0.1c18.8,117.3,16.7,117.7-10.8,2.1c-0.1,0-0.2,0.1-0.4,0.1c26.5,115.9,24.4,116.5-10.6,2.8
		c-0.1,0-0.2,0.1-0.3,0.1c34,114,32,114.7-10.4,3.5c-0.1,0-0.2,0.1-0.3,0.1c41.5,111.7,39.5,112.4-10.2,4.2c-0.1,0-0.2,0.1-0.3,0.1
		c48.7,108.8,46.8,109.7-9.9,4.8c-0.1,0.1-0.2,0.1-0.3,0.2c55.7,105.4,53.9,106.5-9.5,5.5c-0.1,0.1-0.2,0.1-0.3,0.2
		c62.5,101.6,60.8,102.8-9.2,6.1c-0.1,0.1-0.2,0.1-0.3,0.2c69.1,97.3,67.4,98.6-8.7,6.7c-0.1,0.1-0.2,0.1-0.3,0.2
		c75.3,92.6,73.7,94-8.3,7.2c-0.1,0.1-0.2,0.2-0.3,0.2c81.3,87.6,79.8,89.1-7.8,7.7c-0.1,0.1-0.2,0.2-0.2,0.3
		c86.9,82.1,85.5,83.7-7.3,8.2c-0.1,0.1-0.2,0.2-0.2,0.3c92.1,76.3,90.8,78-6.7,8.7c-0.1,0.1-0.1,0.2-0.2,0.3
		c97,70.1,95.8,71.9-6.2,9.1c-0.1,0.1-0.1,0.2-0.2,0.3c101.4,63.7,100.3,65.5-5.6,9.5c-0.1,0.1-0.1,0.2-0.2,0.3
		c105.4,56.9,104.4,58.8-4.9,9.9c0,0.1-0.1,0.2-0.2,0.3c108.9,49.9,108.1,51.9-4.2,10.2c0,0.1-0.1,0.2-0.1,0.3
		c112,42.7,111.3,44.7-3.6,10.4c0,0.1-0.1,0.2-0.1,0.3c114.6,35.3,114,37.4-2.9,10.7c0,0.1-0.1,0.2-0.1,0.3
		c116.7,27.7,116.2,29.8-2.1,10.8c0,0.1,0,0.2-0.1,0.4c118.2,20.1,117.9,22.2-1.4,10.9c0,0.1,0,0.2,0,0.4
		c119.3,12.3,119.1,14.4-0.7,11c0,0.1,0,0.2,0,0.4c119.8,4.5,119.8,6.6,0,11c0,0.1,0,0.2,0,0.4c119.8-3.4,120-1.3,0.7,11
		c0,0.1,0,0.2,0,0.4c119.4-11.2,119.7-9.1,1.4,10.9c0,0.1,0,0.2,0.1,0.4c118.4-19,118.8-16.9,2.1,10.8c0,0.1,0.1,0.2,0.1,0.3
		C177.5,231,178,233,63.4,268.3c0,0.1,0.1,0.2,0.1,0.3c114.9-34.3,115.6-32.3,3.6,10.4c0,0.1,0.1,0.2,0.1,0.3
		c112.4-41.7,113.2-39.8,4.2,10.2c0,0.1,0.1,0.2,0.2,0.3c109.4-49,110.3-47.1,4.9,9.9c0.1,0.1,0.1,0.2,0.2,0.3
		c105.9-56,106.9-54.2,5.6,9.5c0.1,0.1,0.1,0.2,0.2,0.3c101.9-62.8,103.1-61,6.2,9.1c0.1,0.1,0.1,0.2,0.2,0.3
		c97.6-69.2,98.9-67.6,6.7,8.7c0.1,0.1,0.2,0.2,0.2,0.3c92.8-75.4,94.2-73.9,7.3,8.2c0.1,0.1,0.2,0.2,0.2,0.3
		c87.6-81.3,89.1-79.8,7.8,7.7c0.1,0.1,0.2,0.2,0.3,0.2c82-86.8,83.6-85.4,8.3,7.2c0.1,0.1,0.2,0.1,0.3,0.2
		c76.2-91.9,77.8-90.7,8.7,6.7c0.1,0.1,0.2,0.1,0.3,0.2c69.9-96.7,71.7-95.5,9.2,6.1c0.1,0.1,0.2,0.1,0.3,0.2
		c63.4-101,65.3-100,9.5,5.5c0.1,0.1,0.2,0.1,0.3,0.2c56.7-104.9,58.6-103.9,9.9,4.8c0.1,0,0.2,0.1,0.3,0.1
		c49.7-108.3,51.6-107.5,10.2,4.2c0.1,0,0.2,0.1,0.3,0.1c42.4-111.2,44.5-110.6,10.4,3.5c0.1,0,0.2,0.1,0.3,0.1
		c35-113.7,37.1-113.2,10.6,2.8c0.1,0,0.2,0.1,0.4,0.1c27.5-115.6,29.6-115.3,10.8,2.1c0.1,0,0.2,0,0.4,0.1
		c19.9-117.1,22-116.8,10.9,1.4c0.1,0,0.2,0,0.4,0c12.2-118,14.3-117.9,10.9,0.7c0.1,0,0.2,0,0.4,0c4.4-118.5,6.5-118.5,11-0.1
		c0.1,0,0.2,0,0.4,0c-3.3-118.4-1.2-118.6,10.9-0.8c0.1,0,0.2,0,0.4,0c-11.1-117.9-9-118.2,10.8-1.5c0.1,0,0.2,0,0.4-0.1
		c-18.7-116.9-16.7-117.3,10.7-2.2c0.1,0,0.2-0.1,0.4-0.1c-26.3-115.3-24.3-115.9,10.6-2.9c0.1,0,0.2-0.1,0.4-0.1
		c-33.8-113.3-31.8-114,10.3-3.6c0.1,0,0.2-0.1,0.3-0.1c-41.1-110.7-39.1-111.6,10.1-4.2c0.1-0.1,0.2-0.1,0.3-0.2
		c-48.2-107.7-46.3-108.7,9.8-4.9c0.1-0.1,0.2-0.1,0.3-0.2c-55.1-104.3-53.3-105.4,9.4-5.5c0.1-0.1,0.2-0.1,0.3-0.2
		c-61.8-100.4-60-101.6,9-6.1c0.1-0.1,0.2-0.1,0.3-0.2c-68.2-96-66.5-97.3,8.6-6.7c0.1-0.1,0.2-0.2,0.3-0.2
		c-74.2-91.3-72.7-92.7,8.2-7.2c0.1-0.1,0.2-0.2,0.3-0.3c-80-86.2-78.5-87.7,7.7-7.7c0.1-0.1,0.2-0.2,0.3-0.3
		c-85.4-80.8-84-82.4,7.2-8.2c0.1-0.1,0.2-0.2,0.2-0.3c-90.5-75-89.2-76.7,6.6-8.7c0.1-0.1,0.1-0.2,0.2-0.3
		c-95.2-68.9-94-70.6,6-9.1c0.1-0.1,0.1-0.2,0.2-0.3c-99.4-62.5-98.4-64.3,5.4-9.4c0.1-0.1,0.1-0.2,0.2-0.3
		c-103.3-55.8-102.4-57.7,4.8-9.8c0.1-0.1,0.1-0.2,0.1-0.3C280.2,239.9,281,238,391,278.8c0-0.1,0.1-0.2,0.1-0.3
		c-109.6-41.8-109-43.9,3.5-10.3c0-0.1,0.1-0.2,0.1-0.4c-112.1-34.6-111.6-36.6,2.8-10.5c0-0.1,0.1-0.2,0.1-0.4
		c-114.1-27.2-113.7-29.2,2.1-10.7c0-0.1,0-0.2,0.1-0.4c-115.6-19.6-115.3-21.7,1.4-10.8c0-0.1,0-0.2,0-0.4
		c-116.6-12-116.5-14.2,0.7-10.9c0-0.1,0-0.2,0-0.4C284.8,219.1,284.8,216.9,401.9,212.6z"/>
	<path d="M404.6,243c-0.5-0.7-1-1.5-1.4-2.2c-0.1,0.1-0.2,0.1-0.4,0.2c0,0.1-0.1,0.1-0.2,0.2c-0.5,0.3-1.1,0.8-1.8,1.2
		c-0.2,0.2-0.4,0.5-0.6,0.6c-1.3,1-2.7,1.7-4.2,2.4c-0.7,4-1.5,8-2.4,11.9c0.6-0.8,1.1-1.8,1.2-3c0.1-0.8,0.6-1.3,1.4-1.4
		c2.7-0.2,4.5-2.1,7.1-2.6c0.7-0.1,1.3-0.2,2-0.2c0.3-1.6,0.6-3.2,0.8-4.8C405.6,244.6,405,243.7,404.6,243z"/>
	<path d="M410.1,242.8c0.3,0.5,0.5,1,0.8,1.5c0.6-4,1-8.1,1.3-12.2c0,0,0,0,0,0c-1.2,1.8-3.5,5-3.4,7.2c0,0.3,0,0.5,0,0.8
		C409.2,241.1,409.6,242,410.1,242.8z"/>
	<path d="M390.9,151.8c-0.7-2.2-1.7-4.2-2.5-6.7c-0.8-2.6-0.6-5.1-0.8-7.7c-0.3-3.2-1.2-6.2-1.6-9.4c-3.7-6.2-7.7-12.2-12-17.9
		c-1,1.7-2.1,3.4-2.9,5.2c-0.7,1.5-1.3,3.3-2,5c9.1,12.7,16.4,26.7,21.7,41.6c0.6-1.7,0.9-3.4,1-5.1c0-1.6-0.2-2.9-0.6-4.2
		C390.9,152.3,390.8,152.1,390.9,151.8z"/>
	<path d="M395.7,147.1c0.2-0.2,0.4-0.4,0.7-0.5c-1.9-4.4-4-8.7-6.3-13c0.4,2.2,0.7,4.3,0.6,6.6c0,3.7,1.6,6.5,2.6,9.8
		C394,149,394.7,147.9,395.7,147.1z"/>
	<path d="M403.2,147.6c-1.2,1.2-2.2,2.4-3.5,3.6c0.8,4.4,0.1,8.4-1.2,12.3c1.5,4.5,2.9,9.1,4,13.7c0.1-0.1,0.2-0.1,0.3-0.1
		c2.3-0.4,6.6-0.8,8.6,0.9c0.7,0.5,1.4,1.9,2.1,2.3C411.1,168.9,407.7,158,403.2,147.6z"/>
	<path d="M366.1,106.3c-1.8-0.3-0.2-1.3-3.3-1c-1,0.1-2,0.2-3,0.2c-0.7-0.1-1.3-0.1-1.9-0.2c3.1,3.5,6.1,7.1,8.9,10.9
		c0.9-1.9,1.9-3.7,2.7-5.3c0.7-1.3,1.4-3,2.5-4.4c-0.4-0.5-0.8-0.9-1.1-1.4c-0.9,0.2-1.8,0.4-2.5,0.9
		C367.4,106.7,367.2,106.5,366.1,106.3z"/>
	<path d="M364.2,96.5c0,0.4,0,0.7,0,1.1c0,1.5,0,3.2-0.5,4.7c0.7,0,1.4,0.1,2,0.5c2.5,2,1.6,0.1,3,0c0.3,0,0.7-0.1,1-0.1
		C367.9,100.6,366.1,98.5,364.2,96.5z"/>
	<path d="M381.2,299.4c-0.4-0.6-0.4-1.5,0-2.1c0.2-0.3,0.5-0.6,0.7-0.9c-0.5-0.9-0.9-1.9-1.5-2.7c-8.1,16-18.7,30.6-31.2,43.1
		c-30.4,30.4-72.4,49.2-118.8,49.2c-46.4,0-88.4-18.8-118.8-49.2C81.1,306.4,62.3,264.4,62.3,218c0-46.4,18.8-88.4,49.2-118.8
		C142,68.8,183.9,50,230.3,50c46.4,0,88.4,18.8,118.8,49.2c1.5,1.5,3,3.1,4.5,4.6c1.2,0.1,2.4,0.2,3.6,0.3c0-0.1,0-0.2,0-0.4
		c0.4-1.3,1.3-2.5,2-3.7c-0.1-1.1-0.1-2.3,0.2-3.3c0.1-0.3,0.2-0.6,0.4-0.9C327.2,61.5,281.3,40,230.3,40c-98.3,0-178,79.7-178,178
		c0,98.3,79.7,178,178,178c65.8,0,123.3-35.7,154.1-88.8C383.6,304.4,382.5,301.8,381.2,299.4z"/>
	<path d="M405.4,203c2.3-0.9,3.8-4.7,5.1-6.7c1.2-1.9,2.4-3.9,3.8-5.7c0,0,0,0,0,0c0-1.7,0-3.5,0-5.2c0,0,0,0-0.1-0.1
		c-0.8-0.6-1.9-0.8-2.7-1.5c-0.6-0.5-0.8-1.3-1.3-1.9c-1.7-2.1-4.4-1.6-6.3-3.4c0.5,8.6,0.4,17.4-0.4,26.2
		C404,204,404.6,203.3,405.4,203z"/>
	<path d="M414.3,203.3c1.1,0.6,2.5,1.1,2.6,2.6c0,0.1,0,0.3-0.1,0.5c0.4,0.3,0.8,0.6,1.2,0.8c0.9,0.5,1.8,0.9,2.7,1.2
		c-0.1-3.7-0.4-7.3-0.7-10.9c-1.1,2.2-2.4,3.9-4.3,4.4c-0.9,0.2-1.7,0.5-2.3,1C413.7,202.9,414,203.1,414.3,203.3z"/>
	<path d="M414.3,214.3c-1.3-0.5-2.6-1.1-3.8-1.8c-1-0.6-2.2-1.3-3.1-2.1c-0.5-0.3-1-0.6-1.4-0.9c-0.3-0.2-0.7-0.4-1-0.6
		c0,0.1-0.1,0.1-0.1,0.2c-0.2,0.5-0.4,0.9-0.7,1.3c0.1,2.6,0.2,5.2,0.2,7.9c0,7.9-0.6,15.7-1.6,23.2c0.6-0.4,1.2-0.8,1.8-1.2
		c0.2-0.2,0.6-0.2,0.9-0.2c-0.2-0.4-0.4-0.8-0.4-1.3c-0.2-3.9,3.8-7.1,5.9-9.8c0.7-0.9,1.9-2.3,3.1-3.7c0.1-2.3,0.1-4.6,0.1-6.9
		C414.3,217,414.3,215.6,414.3,214.3z"/>
	<path d="M404.1,255.4c-0.4,0.4-1.3,0.5-2,0.5c-0.6,2.5-1.9,4.5-3.7,6.1c-0.3,3.1-0.7,6.2-1.3,9.3c0.5,0,0.9,0.1,1.4,0.1
		c0.5,0,1,0.4,1.2,0.9c0.2,0.6,0.5,1,0.7,1.5c2.1,0.3,4.3,0.3,6.4,0.5c1.4-8.4,2.1-15.1,2.4-22.2
		C407.3,252.7,405.7,253.8,404.1,255.4z"/>
	<path d="M400.1,279.1c0.3,1.9,0.2,3.8-0.2,5.6c-0.2,0.9-0.4,1.9-0.8,2.7c-0.3,0.6,0,1.4,0.5,2.3c1.4-3.4,2.7-6.8,3.9-10.2
		C402.4,279.3,401.2,279.2,400.1,279.1z"/>
	<path d="M392.6,287.4c-0.4-0.9-1.3-2.1-1.3-3.1c0-1.1,0.7-2.3,0.9-3.4c0.3-1.7,0.5-3.4,0.2-5.1c-0.3,0-0.5,0-0.8-0.1
		c-0.7-0.1-1.2-0.4-1.4-1.1c-0.2-0.7-0.7-1.3-1.2-1.7c-2.1,6.1-4.5,12-7.3,17.7c1.6,1.2,2.5,2.8,4,4.5c0.8,0.9,0.8,2,0,2.9l-0.3,0.3
		c0.6,1.1,1.2,2.4,1.7,3.7c2.3-4.2,4.4-8.6,6.3-13.1C393.2,288.6,392.9,288,392.6,287.4z"/>
	<polygon fill="#FFFFFF" points="230.5,21.2 278.1,151.1 415.6,156.4 307.5,242.1 344.9,375.3 230.5,298.3 116.1,375.3 153.6,242.1 
		45.5,156.4 183,151.1 	"/>
	<g>
		<g>
			<path fill="#FFFFFF" stroke="#000000" stroke-width="10" d="M169.3,233.7l-8-21.1c0,0,2.9-28.8,4.2-28.8
				c1.3,0,28.5-33.6,28.5-33.6l12.8-17.6l30.4-13.1l11.5,2.6l7.4,5.1l22.7-7.4l25.9,2.2l30.7-5.1l21.1,3.5l16.6,2.9l7.4,11.2v35.9
				l18.6,17.6l0.6,12.2l-17,31.4l1.3,19.5l-11.5,7.7L359.4,292l-6.1,9.3l-69.5,32c0,0-18.9-0.6-17.3-0.6S240,311.2,240,311.2
				l-2.9-4.8l-31.4-14.7c0,0-23-30.4-22.1-30.1c1,0.3-8.3-18.6-8.3-18.6L169.3,233.7z"/>
			<g>
				<path d="M181.5,244.6C181.5,244.6,181.4,244.6,181.5,244.6C181.4,244.6,181.4,244.6,181.5,244.6z"/>
				<path d="M202.4,185.1c-3.5-2.7-5.9-4.6-5.9-4.6C198.4,182.3,200.4,183.8,202.4,185.1z"/>
				<path d="M214.1,164.2c-0.2-0.1,0.5,1.3,1.8,3.3C215,165.6,214.3,164.3,214.1,164.2z"/>
				<path d="M340.2,289.1l-16.3-4.5l-8.3-12.2l-36.5-1l-13.1-30.1l-7.3-7.7c0.2-0.4,0.2-0.6,0.2-0.6l-11.5-18.9c0,0-6.7-16-5.4-33.9
					l-2.6,14.7l-5.4-4.5l0.6-22.4l-5.8,18.9c0,0-8.9-13.1-12.9-19.4c3.1,6.6,9,20.7,9,20.7l-15.4-14.4c0,0,17.9,20.2,18.6,20.5
					c0.6,0.3-13-0.6-25.8-9.2c7.1,5.5,18.7,14.3,22.6,16.2c5.8,2.9-15.7-0.3-24-5.4c-8.3-5.1,20.2,14.4,20.2,14.4
					s-16.3,1.9-26.2-4.5c-9.9-6.4,4.8,29.5,13.1,35.5c8.1,5.9-25.3,3.4-26.5,3.2c0.1,0,0.2,0.1,0.4,0.2l-4.6-0.5
					c0,0,9,22.1,9.9,22.1c1,0,18.6,27.2,19.5,26.9c1-0.3,30.4,13.1,30.4,13.1l5.4,7.4l24,18.9l17.3,0.6l69.5-32l6.1-9.3l6.4-16.6
					L340.2,289.1z"/>
			</g>
			<path d="M265.6,133.8c0,0,16,4.8,17,4.8c1,0,19.2,11.2,19.2,11.2L313,169c0,0,14.1-4.5,17-4.5c2.9,0,20.8,7.4,20.8,7.4l-14.4-9.3
				l-18.2,0.3l9.3-18.9l13.4-8.6l-19.2,9.6c0,0-11.5,11.8-10.6,12.5c1,0.6,7-17.9,7-17.9l13.1-13.4l-17,11.5l-6.1,11.5l1.9-12.8
				l5.4-7.7l-8.3,7l-3.8,9.6l-5.4-2.9l4.5-7.4l-8.3,4.8l-11.2-3.8C282.9,136.1,264,133.5,265.6,133.8z"/>
			<path d="M379.9,179c0,0-7.4,39.4-7.4,40.7s-31.4-2.2-34.3-2.9c-2.9-0.6-7-2.9-7-2.9l-9.3-28.5l-5.8-9.6l12.8,55.4
				c0,0,24,5.1,27.2,5.1s20.2-12.8,20.2-12.8s3.2-16,3.5-25.3C380.2,188.9,379.9,179,379.9,179z"/>
			<path d="M328.1,255.1c0,0,5.8,23,6.7,24c1,1,6.4,7.4,6.4,7.4s11.8-1.3,12.8-1.9c1-0.6,11.8-9.3,11.8-9.3l-23.4,14.4l-70.7-25.3
				c0,0-14.1-16-13.1-15.7s0.3-15.7,0.3-15.7s29.8,30.4,39.4,33.6c9.6,3.2,23.4-5.1,25.6-6.7c2.2-1.6,5.4-31.1,5.4-31.1L328.1,255.1
				z"/>
			<path fill="#FFFFFF" d="M321.3,292c1,0,1.9,15.4,1.9,15.4l-19.2,9.9l-13.4-15.4c0,0-3.2-14.1-2.9-15.4s8.6-7.7,8.6-7.7l9,0.6
				l15,11.2L321.3,292z"/>
			<path fill="#FFFFFF" d="M354,284.6l-23,19.5c0,0,15.4-6.1,19.2-9S354,284.6,354,284.6z"/>
			<path fill="#FFFFFF" d="M288.4,320.8c0.6,0-16.6-16-17.6-17c-1-1-8-5.4-8-5.4l14.1,30.1l10.2-0.3L288.4,320.8z"/>
			<path d="M282.9,250.3c0,0-9.6-25-8.6-27.2c1-2.2,31.1-15.7,31.1-15.7s-33.6,11.2-34.3,14.1C270.4,224.4,282.9,250.3,282.9,250.3z
				"/>
			<polygon points="370.7,258.5 375,235.3 367.1,260.6 370.1,262.4 			"/>
		</g>
		<path d="M203.1,136.9l-60.8,0l39.1,10.3c0,0-118.6,2.9-116.3,3.4S166.1,162,166.1,162S9.3,174,11,174.6s159.6,2.3,159.6,2.3
			L203.1,136.9z"/>
		<polygon points="264.1,331.3 79.4,314.2 170.6,309.7 53.2,297.7 176.9,284 15,257.2 204,244.7 		"/>
		<path fill="#FFFFFF" d="M182.1,176.8L118,213c0,0-94.4,7.2-92.7,7.7c1.7,0.6,130.6,17.7,128.3,17.7c-2.3,0-136.3,16.5-136.3,16.5
			l181.9-9.1L182.1,176.8z"/>
		<path d="M201.7,252.8l-59.3-24.3c0,0,37.5,3,44.1,4.1c6.6,1,14.7,0.5,23.3,0.5s7.1,15.7,7.1,15.7L201.7,252.8z"/>
	</g>
</g>
</svg>
